<mxfile host="app.diagrams.net" modified="2023-09-30T04:12:54.680Z" agent="Mozilla/5.0 (Macintosh; Intel Mac OS X 10_15_7) AppleWebKit/537.36 (KHTML, like Gecko) Chrome/117.0.0.0 Safari/537.36" version="21.8.2" etag="v8a1J60VEn4CtT7n1vsG" type="github">
  <diagram name="Page-1" id="Gd49nKnMVunCbQaPbHJh">
    <mxGraphModel>
      <root>
        <mxCell id="0" />
        <mxCell id="1" parent="0" />
      </root>
    </mxGraphModel>
  </diagram>
</mxfile>
